<svg width="771" height="813" viewBox="0 0 771 813" fill="none" xmlns="http://www.w3.org/2000/svg">
<g clip-path="url(#clip0_1_2)">
<path d="M424.343 541.376C428.616 536.31 436.92 527.885 443.565 527.895C473.724 527.955 504.256 528.277 534.928 528.016C538.742 527.982 542.049 527.624 544.851 526.94C549.2 525.874 553.48 524.859 557.688 523.894C560.771 523.19 563.75 521.981 566.626 520.265C570.506 517.946 573.844 515.617 576.639 513.278C578.582 511.643 580.58 510.158 582.63 508.824C587.228 505.835 590.73 502.115 593.136 497.665C595.287 493.684 598.494 490.337 600.344 486.275C602.918 480.625 605.163 474.667 607.08 468.4C607.844 465.907 608.085 463.595 608.477 461.072C609 457.714 608.899 454.507 609.352 451.179C609.566 449.564 609.67 447.805 609.663 445.901C609.61 397.304 609.637 348.637 609.744 299.899C609.764 292.198 609.362 286.096 608.537 281.592C607.029 273.369 604.372 265.45 600.565 257.837C598.343 253.393 595.539 249.523 592.895 245.431C590.576 241.852 588.746 239.567 587.406 238.575C583.666 235.793 580.278 233.036 577.242 230.301C572.004 225.596 566.384 222.329 560.041 219.997C551.697 216.934 542.987 215.081 533.913 214.437C532.505 214.337 525.803 214.276 513.806 214.256C421.733 214.115 329.495 214.27 237.093 214.719C235.913 214.725 234.79 214.846 233.725 215.081C230.95 215.704 228.196 215.332 225.3 215.945C223.611 216.3 221.859 216.619 220.042 216.9C215.669 217.574 210.623 219.484 206.491 221.796C205.13 222.56 203.773 223.281 202.419 223.958C200.087 225.13 197.889 226.585 195.824 228.321C191.894 231.628 186.766 233.95 183.459 237.69C182.045 239.292 180.694 241.091 179.408 243.089C176.884 247.03 173.245 250.458 171.385 254.439C169.314 258.852 167.032 263.557 165.524 268.011C162.904 275.725 161.593 284.384 161.593 293.988C161.593 345.132 161.617 397.361 161.664 450.677C161.664 452.155 162.176 453.542 162.166 455.07C162.106 462.281 163.225 469.044 165.524 475.357C167.474 480.736 169.736 487.039 173.054 491.603C176.633 496.519 179.599 502.38 184.223 506.03C188.499 509.407 193.144 512.993 198.157 516.786C201.153 519.052 203.991 520.734 206.672 521.833C211.94 523.991 217.938 525.707 224.667 526.98C229.506 527.892 235.105 528.334 241.466 528.307C271.578 528.193 301.771 528.12 332.045 528.086C339.816 528.076 345.144 534.178 350.201 539.074C354.272 543.025 355.811 548.866 360.405 552.686C367.254 558.383 374.312 562.073 381.577 563.755C386.443 564.881 392.344 564.522 399.281 562.679C402.286 561.875 404.659 559.814 407.685 558.829C411.84 557.488 415.332 554.985 418.16 551.319C420.513 548.273 421.81 544.382 424.343 541.376Z" stroke="#947A6D" stroke-width="2.01064"/>
<path d="M232.9 494.177C233.976 494.197 234.64 494.669 235.836 494.679C264.374 494.8 294.55 494.636 326.365 494.187C329.059 494.157 331.643 494.71 334.327 494.72C336.15 494.726 338.043 494.917 340.007 495.293C346.28 496.479 351.679 497.736 357.128 501.355C362.566 504.964 369.081 507.387 372.831 513.037C375.455 517.008 378.229 521.25 381.607 524.598C382.894 525.871 383.99 527.295 384.894 528.87C386.01 530.821 387.961 531.404 390.102 530.871C391.449 530.539 393.198 528.408 393.852 527.242C395.671 524.005 398.205 521.471 400.246 518.395C402.129 515.54 404.334 512.621 406.861 509.639C408.61 507.578 410.369 507.256 412.43 505.889C416.381 503.275 420.221 499.857 424.594 498.228C430.918 495.886 437.161 494.609 443.957 494.639C471.322 494.747 500.241 494.777 530.716 494.73C533.822 494.73 536.898 494.257 539.965 493.755C552.943 491.613 561.79 484.395 568.878 473.779C571.619 469.677 573.79 464.302 575.392 457.654C575.965 455.261 575.583 452.919 576.045 450.616C576.354 449.035 576.508 447.456 576.508 445.881C576.521 401.218 576.468 356.026 576.347 310.304C576.337 306.082 575.875 301.638 576.166 297.637C576.82 288.821 575.111 280.698 571.321 272.585C569.581 268.875 566.626 266.191 564.233 263.004C556.381 252.559 543.493 247.773 530.897 247.763C443.032 247.73 356.209 247.733 270.429 247.773C267.031 247.773 263.663 248.306 260.245 248.316C251.908 248.35 243.282 248.424 234.368 248.538C225.853 248.648 214.845 252.78 209.326 259.365C206.41 262.853 202.419 265.658 200.539 269.82C196.89 277.863 194.377 283.442 194.377 291.233C194.404 337.914 194.437 384.503 194.477 431.003C194.484 439.26 194.601 447.165 194.829 454.718C194.963 459.269 196.411 464.366 199.172 470.009C201.213 474.161 204.922 477.8 207.737 481.651C211.377 486.637 217.579 489.914 223.179 491.432C226.567 492.347 229.271 494.106 232.9 494.177Z" stroke="#947A6D" stroke-width="2.01064"/>
<path d="M281.628 428.711C301.319 428.757 319.629 428.761 336.559 428.721C338.027 428.721 339.283 429.837 340.037 430.993C343.911 437.011 347.805 442.554 351.719 447.621C353.348 449.722 354.614 452.235 355.519 454.708C356.514 457.392 358.153 459.212 360.526 460.81C366.933 465.1 373.581 465.78 380.471 462.851C388.353 459.503 389.227 447.872 385.769 441.267C384.02 437.939 383.145 434.773 380.582 431.807C378.564 429.475 376.688 427.092 374.952 424.659C373.283 422.307 372.539 419.15 371.443 416.496C370.773 414.867 369.831 413.292 368.618 411.771C365.612 408.001 364.366 403.628 361.651 399.637C358.696 395.301 356.679 390.907 355.6 386.457C354.805 383.18 352.795 380.455 351.628 377.299C350.794 375.027 349.306 373.328 348.653 370.975C347.255 365.878 344.631 361.214 343.063 356.197C342.473 354.294 341.719 352.293 340.801 350.195C339.809 347.91 339.002 345.202 338.378 342.072C337.849 339.365 337.189 336.647 336.398 333.919C333.06 322.385 330.349 310.478 328.265 298.2C326.958 290.54 327.37 283.301 322.746 276.586C320.139 272.799 316.727 270.829 312.512 270.675C305.856 270.433 300.91 272.531 297.673 276.968C295.931 279.367 294.6 283.117 293.682 288.217C292.898 292.54 292.144 296.853 291.42 301.156C290.978 303.78 291.048 306.384 290.505 309.178C288.669 318.608 286.457 327.84 283.87 336.875C282.644 341.178 280.804 345.279 279.567 349.522C278.049 354.749 275.807 359.575 274.118 364.742C272.718 369.038 271.109 373.582 269.293 378.374C267.453 383.23 264.307 387.342 262.397 392.107C260.396 397.103 255.842 401.155 255.168 406.604C254.726 410.173 251.057 414.133 249.066 417.099C246.338 421.167 243.768 425.266 241.355 429.394C238.39 434.471 230.588 444.042 231.925 450.174C233.748 458.538 238.832 463.652 247.176 465.515C252.343 466.671 259.009 462.198 261.653 458.558C265.231 453.619 268.864 448.375 272.55 442.825C275.385 438.543 277.707 433.777 280.532 429.314C280.649 429.129 280.811 428.977 281.003 428.871C281.194 428.766 281.41 428.711 281.628 428.711Z" stroke="#947A6D" stroke-width="2.01064"/>
<path d="M530.545 454.688C530.625 452.798 531.208 451.019 531.218 449.169C531.346 430.912 531.269 409.633 530.987 385.331C530.967 383.568 530.944 381.766 530.917 379.922C530.562 350.178 530.458 320.146 530.605 289.826C530.635 283.271 531.218 278.345 525.046 274.254C522.07 272.273 519.567 271.368 515.897 271.429C512.288 271.489 508.85 271.358 505.703 273.449C501.783 276.053 499.068 278.576 499.058 283.774C499.025 341.137 499.021 397.653 499.048 453.321C499.055 455.66 499.638 458.079 500.797 460.579C500.985 460.995 501.297 461.279 501.732 461.434C504.346 462.359 506.769 463.706 509.624 463.806C510.898 463.853 512.151 464.004 513.384 464.259C519.758 465.586 530.243 462.147 530.545 454.688Z" stroke="#947A6D" stroke-width="2.01064"/>
<path d="M318.453 386.829C317.863 383.25 316.821 379.755 315.326 376.344C313.859 372.996 312.733 369.568 311.164 366.26C311.102 366.131 311.003 366.023 310.88 365.95C310.756 365.876 310.614 365.84 310.471 365.847C310.328 365.853 310.189 365.901 310.073 365.986C309.957 366.07 309.868 366.186 309.817 366.321L298.92 396.048C298.871 396.182 298.856 396.325 298.874 396.466C298.893 396.607 298.946 396.742 299.028 396.858C299.11 396.975 299.218 397.07 299.345 397.135C299.471 397.201 299.612 397.234 299.754 397.234L319.237 397.214C319.342 397.213 319.445 397.188 319.539 397.141C319.632 397.094 319.714 397.026 319.777 396.943C319.84 396.859 319.883 396.762 319.903 396.659C319.922 396.556 319.918 396.45 319.891 396.349C319.227 393.863 318.959 391.175 319.086 388.287C319.093 388.012 319.003 387.774 318.815 387.573C318.621 387.358 318.5 387.11 318.453 386.829Z" stroke="#947A6D" stroke-width="2.01064"/>
<path d="M723.204 720.142C715.202 726.948 704.435 731.361 694.201 733.171C688.46 734.176 682.247 736.177 676.628 736.197C656.716 736.277 636.79 736.408 616.851 736.589C610.357 736.649 603.655 736.649 596.745 736.589C567.792 736.321 542.743 736.314 521.598 736.569C503.649 736.79 486.388 736.861 469.814 736.78C462.991 736.753 455.957 736.706 448.712 736.639C432.808 736.499 416.977 736.515 401.221 736.69C393.788 736.77 387.086 736.767 381.114 736.68C334.93 736.05 294.379 735.822 259.461 735.996C237.109 736.11 220.103 736.137 208.441 736.076C204.872 736.056 201.273 736.328 197.704 736.297C170.252 736.05 138.22 735.989 101.606 736.117C92.6989 736.147 85.1389 734.991 76.8852 733.372C69.1744 731.844 60.8806 728.788 54.6577 724.706C50.2544 721.811 45.6668 718.926 40.8949 716.05C38.7502 714.757 36.9004 713.319 35.3455 711.738C31.5454 707.877 27.695 703.916 23.7944 699.855C21.7436 697.717 20.2691 695.74 19.371 693.923C17.8932 690.897 16.5561 687.831 14.6259 685.067C5.17593 671.525 0.712323 651.801 0.70227 635.374C0.688866 586.281 0.665408 537.945 0.631898 490.367C0.631898 488.959 0.571579 487.515 0.45094 486.034C0.236473 483.474 0.129239 481.135 0.129239 479.017C0.0622177 418.115 0.122537 352.719 0.310196 282.829C0.320249 278.798 0.73243 274.756 0.73243 270.705C0.799451 222.014 0.7961 170.528 0.722376 116.248C0.712323 110.286 0.993812 104.365 1.01392 98.3833C1.04408 88.6116 2.91397 78.287 5.7188 69.1889C8.09135 61.4881 12.7158 54.5816 16.0233 47.0618C16.593 45.7683 17.3537 44.5619 18.3054 43.4427C21.5425 39.6292 24.8131 35.6481 28.1173 31.4995C29.8866 29.2878 32.0146 27.2102 34.501 25.2665C38.7033 21.9758 42.9156 18.618 47.1379 15.1933C48.3945 14.1678 49.8321 13.3033 51.3401 12.6498C57.5597 9.90865 63.6284 7.32498 69.5464 4.89882C76.5367 2.03701 84.1302 0.488822 92.3269 0.254248C98.9955 0.0665888 110.64 -0.0171877 127.262 0.00291866C299.359 0.19728 468.42 0.244195 634.444 0.143663C650.121 0.130259 663.106 0.173823 673.4 0.274354C677.442 0.314567 681.815 0.435205 685.766 1.23946C692.421 2.59664 699.066 3.85328 705.38 6.51738C709.803 8.38727 714.307 9.31216 718.459 11.8657C721.837 13.9433 724.893 16.0981 727.627 18.3299C729.176 19.5899 730.757 20.7125 732.372 21.6977C734.755 23.1554 736.876 24.2914 738.646 26.6036C742.265 31.3152 746.527 36.2044 751.433 41.2712C752.506 42.3771 753.635 44.3374 754.821 47.1523C755.659 49.1227 756.651 51.1334 757.797 53.1842C763.695 63.7199 767.421 74.9225 768.976 86.792C769.579 91.3762 769.874 98.0616 769.861 106.848C769.807 142.403 770.015 178.514 770.484 215.181C770.571 221.984 770.621 228.683 770.635 235.277C770.963 381.156 770.983 476.58 770.695 521.552C770.44 562.515 770.404 597.785 770.585 627.361C770.605 630.873 770.38 635.873 769.911 642.361C769.475 648.379 768.815 653.332 767.931 657.219C766.563 663.211 764.506 669.38 761.758 675.727C760.766 678.006 759.513 680.161 757.998 682.191C756.282 684.483 754.774 687.295 753.474 690.626C752.318 693.612 750.096 696.135 747.834 698.387C743.786 702.408 740.237 706.403 737.188 710.37C735.821 712.153 734.028 713.601 731.809 714.713C728.224 716.503 725.355 718.312 723.204 720.142ZM424.343 541.376C428.616 536.31 436.92 527.885 443.565 527.895C473.724 527.955 504.256 528.277 534.928 528.016C538.742 527.982 542.049 527.624 544.851 526.94C549.2 525.874 553.48 524.859 557.688 523.894C560.771 523.19 563.75 521.981 566.626 520.265C570.506 517.946 573.844 515.617 576.639 513.278C578.582 511.643 580.58 510.158 582.63 508.824C587.228 505.835 590.73 502.115 593.136 497.665C595.287 493.684 598.494 490.337 600.344 486.275C602.918 480.625 605.163 474.667 607.08 468.4C607.844 465.907 608.085 463.595 608.477 461.072C609 457.714 608.899 454.507 609.352 451.179C609.566 449.564 609.67 447.805 609.663 445.901C609.61 397.304 609.637 348.637 609.744 299.899C609.764 292.198 609.362 286.096 608.537 281.592C607.029 273.369 604.372 265.45 600.565 257.837C598.343 253.393 595.539 249.523 592.895 245.431C590.576 241.852 588.746 239.567 587.406 238.575C583.666 235.793 580.278 233.036 577.242 230.301C572.004 225.596 566.384 222.329 560.041 219.997C551.697 216.934 542.987 215.081 533.913 214.437C532.505 214.337 525.803 214.276 513.806 214.256C421.733 214.115 329.495 214.27 237.093 214.719C235.913 214.725 234.79 214.846 233.725 215.081C230.95 215.704 228.196 215.332 225.3 215.945C223.611 216.3 221.859 216.619 220.042 216.9C215.669 217.574 210.623 219.484 206.491 221.796C205.13 222.56 203.773 223.281 202.419 223.958C200.087 225.13 197.889 226.585 195.824 228.321C191.894 231.628 186.766 233.95 183.459 237.69C182.045 239.292 180.694 241.091 179.408 243.089C176.884 247.03 173.245 250.458 171.385 254.439C169.314 258.852 167.032 263.557 165.524 268.011C162.904 275.725 161.593 284.384 161.593 293.988C161.593 345.132 161.617 397.361 161.664 450.677C161.664 452.155 162.176 453.542 162.166 455.07C162.106 462.281 163.225 469.044 165.524 475.357C167.474 480.736 169.736 487.039 173.054 491.603C176.633 496.519 179.599 502.38 184.223 506.03C188.499 509.407 193.144 512.993 198.157 516.786C201.153 519.052 203.991 520.734 206.672 521.833C211.94 523.991 217.938 525.707 224.667 526.98C229.506 527.892 235.105 528.334 241.466 528.307C271.578 528.193 301.771 528.12 332.045 528.086C339.816 528.076 345.144 534.178 350.201 539.074C354.272 543.025 355.811 548.866 360.405 552.686C367.254 558.383 374.312 562.073 381.577 563.755C386.443 564.881 392.344 564.522 399.281 562.679C402.286 561.875 404.659 559.814 407.685 558.829C411.84 557.488 415.332 554.985 418.16 551.319C420.513 548.273 421.81 544.382 424.343 541.376Z" fill="#37505C"/>
<path d="M443.565 527.895C436.92 527.885 428.616 536.31 424.343 541.376C421.81 544.382 420.513 548.273 418.16 551.319C415.332 554.985 411.84 557.488 407.685 558.829C404.659 559.814 402.286 561.875 399.281 562.679C392.344 564.522 386.443 564.881 381.577 563.755C374.312 562.073 367.254 558.383 360.405 552.686C355.811 548.866 354.272 543.025 350.201 539.074C345.144 534.178 339.816 528.076 332.045 528.086C301.771 528.12 271.578 528.193 241.466 528.307C235.105 528.334 229.506 527.892 224.667 526.98C217.938 525.707 211.94 523.991 206.672 521.833C203.991 520.734 201.153 519.052 198.157 516.786C193.144 512.993 188.499 509.407 184.223 506.03C179.599 502.38 176.633 496.519 173.054 491.603C169.736 487.039 167.474 480.736 165.524 475.357C163.225 469.044 162.106 462.281 162.166 455.07C162.176 453.542 161.664 452.155 161.664 450.677C161.617 397.361 161.593 345.132 161.593 293.988C161.593 284.384 162.904 275.725 165.524 268.011C167.032 263.557 169.314 258.852 171.385 254.439C173.245 250.458 176.884 247.03 179.408 243.089C180.694 241.091 182.045 239.292 183.459 237.69C186.766 233.95 191.894 231.628 195.824 228.321C197.889 226.585 200.087 225.13 202.419 223.958C203.773 223.281 205.13 222.56 206.491 221.796C210.623 219.484 215.669 217.574 220.042 216.9C221.859 216.619 223.611 216.3 225.3 215.945C228.196 215.332 230.95 215.704 233.725 215.081C234.79 214.846 235.913 214.725 237.093 214.719C329.495 214.27 421.733 214.115 513.806 214.256C525.803 214.276 532.505 214.337 533.913 214.437C542.987 215.081 551.697 216.934 560.041 219.997C566.384 222.329 572.004 225.596 577.242 230.301C580.278 233.036 583.666 235.793 587.406 238.575C588.746 239.567 590.576 241.852 592.895 245.431C595.539 249.523 598.343 253.393 600.565 257.837C604.372 265.45 607.029 273.369 608.537 281.592C609.362 286.096 609.764 292.198 609.744 299.899C609.637 348.637 609.61 397.304 609.663 445.901C609.67 447.805 609.566 449.564 609.352 451.179C608.899 454.507 609 457.714 608.477 461.072C608.085 463.595 607.844 465.907 607.08 468.4C605.163 474.667 602.918 480.625 600.344 486.275C598.494 490.337 595.287 493.684 593.136 497.665C590.73 502.115 587.228 505.835 582.63 508.824C580.58 510.158 578.582 511.643 576.639 513.278C573.844 515.617 570.506 517.946 566.626 520.265C563.75 521.981 560.771 523.19 557.688 523.894C553.48 524.859 549.2 525.874 544.851 526.94C542.049 527.624 538.742 527.982 534.928 528.016C504.256 528.277 473.724 527.955 443.565 527.895ZM232.9 494.177C233.976 494.197 234.64 494.669 235.836 494.679C264.374 494.8 294.55 494.636 326.365 494.187C329.059 494.157 331.643 494.71 334.327 494.72C336.15 494.726 338.043 494.917 340.007 495.293C346.28 496.479 351.679 497.736 357.128 501.355C362.566 504.964 369.081 507.387 372.831 513.037C375.454 517.008 378.229 521.25 381.607 524.598C382.894 525.871 383.99 527.295 384.894 528.87C386.01 530.821 387.961 531.404 390.102 530.871C391.449 530.539 393.198 528.408 393.852 527.242C395.671 524.005 398.205 521.471 400.246 518.395C402.129 515.54 404.334 512.621 406.861 509.639C408.61 507.578 410.369 507.256 412.43 505.889C416.381 503.275 420.221 499.857 424.594 498.228C430.918 495.886 437.161 494.609 443.957 494.639C471.322 494.747 500.241 494.777 530.716 494.73C533.822 494.73 536.898 494.257 539.965 493.755C552.943 491.613 561.79 484.395 568.878 473.779C571.619 469.677 573.79 464.302 575.392 457.654C575.965 455.261 575.583 452.919 576.045 450.616C576.354 449.035 576.508 447.456 576.508 445.881C576.521 401.218 576.468 356.026 576.347 310.304C576.337 306.082 575.875 301.638 576.166 297.637C576.82 288.821 575.111 280.698 571.321 272.585C569.581 268.875 566.626 266.191 564.233 263.004C556.381 252.559 543.493 247.773 530.897 247.763C443.032 247.73 356.209 247.733 270.429 247.773C267.031 247.773 263.663 248.306 260.245 248.316C251.908 248.35 243.282 248.424 234.368 248.538C225.853 248.648 214.845 252.78 209.326 259.365C206.41 262.853 202.419 265.658 200.539 269.82C196.89 277.863 194.377 283.442 194.377 291.233C194.404 337.914 194.437 384.503 194.477 431.003C194.484 439.26 194.601 447.165 194.829 454.718C194.963 459.269 196.411 464.366 199.172 470.009C201.213 474.161 204.922 477.8 207.737 481.651C211.377 486.637 217.579 489.914 223.179 491.432C226.567 492.347 229.271 494.106 232.9 494.177Z" fill="#EDDDC5"/>
<path d="M232.9 494.177C229.271 494.106 226.567 492.347 223.179 491.432C217.579 489.914 211.377 486.637 207.737 481.651C204.922 477.8 201.213 474.161 199.172 470.009C196.411 464.366 194.963 459.269 194.829 454.718C194.601 447.165 194.484 439.26 194.477 431.003C194.437 384.503 194.404 337.914 194.377 291.233C194.377 283.442 196.89 277.863 200.539 269.82C202.419 265.658 206.41 262.853 209.326 259.365C214.845 252.78 225.853 248.648 234.368 248.538C243.282 248.424 251.908 248.35 260.245 248.316C263.663 248.306 267.031 247.773 270.429 247.773C356.209 247.733 443.032 247.73 530.897 247.763C543.493 247.773 556.381 252.559 564.233 263.004C566.626 266.191 569.581 268.875 571.321 272.585C575.111 280.698 576.82 288.821 576.166 297.637C575.875 301.638 576.337 306.082 576.347 310.304C576.468 356.026 576.521 401.218 576.508 445.881C576.508 447.456 576.354 449.035 576.046 450.616C575.583 452.919 575.965 455.261 575.392 457.654C573.79 464.302 571.619 469.677 568.878 473.779C561.79 484.395 552.943 491.613 539.965 493.755C536.898 494.257 533.822 494.73 530.716 494.73C500.241 494.777 471.322 494.747 443.957 494.639C437.161 494.609 430.918 495.886 424.594 498.228C420.221 499.857 416.381 503.275 412.43 505.889C410.369 507.256 408.61 507.578 406.861 509.639C404.334 512.621 402.129 515.54 400.246 518.395C398.205 521.471 395.671 524.005 393.852 527.242C393.198 528.408 391.449 530.539 390.102 530.871C387.961 531.404 386.01 530.821 384.894 528.87C383.99 527.295 382.894 525.871 381.607 524.598C378.229 521.25 375.455 517.008 372.831 513.037C369.081 507.387 362.566 504.964 357.128 501.355C351.679 497.736 346.28 496.479 340.007 495.293C338.043 494.917 336.15 494.726 334.327 494.72C331.643 494.71 329.059 494.157 326.365 494.187C294.55 494.636 264.374 494.8 235.836 494.679C234.64 494.669 233.976 494.197 232.9 494.177ZM281.628 428.711C301.319 428.757 319.629 428.761 336.559 428.721C338.027 428.721 339.283 429.836 340.037 430.993C343.911 437.011 347.805 442.554 351.719 447.621C353.348 449.722 354.614 452.235 355.519 454.708C356.514 457.392 358.153 459.212 360.526 460.81C366.933 465.1 373.581 465.78 380.471 462.851C388.353 459.503 389.227 447.872 385.769 441.267C384.02 437.939 383.145 434.773 380.582 431.807C378.564 429.475 376.688 427.092 374.952 424.659C373.283 422.307 372.539 419.15 371.443 416.496C370.773 414.867 369.831 413.292 368.618 411.771C365.612 408.001 364.366 403.628 361.652 399.637C358.696 395.3 356.679 390.907 355.6 386.457C354.805 383.18 352.795 380.455 351.628 377.299C350.794 375.027 349.306 373.328 348.653 370.975C347.255 365.878 344.631 361.213 343.063 356.197C342.473 354.294 341.719 352.293 340.801 350.195C339.809 347.91 339.002 345.202 338.378 342.072C337.849 339.365 337.189 336.647 336.398 333.919C333.06 322.385 330.349 310.478 328.265 298.2C326.958 290.54 327.37 283.301 322.746 276.586C320.139 272.799 316.727 270.829 312.512 270.675C305.856 270.433 300.91 272.531 297.673 276.968C295.931 279.367 294.6 283.117 293.682 288.217C292.898 292.54 292.144 296.853 291.42 301.156C290.978 303.78 291.048 306.383 290.505 309.178C288.669 318.608 286.457 327.84 283.87 336.875C282.644 341.178 280.804 345.279 279.567 349.522C278.049 354.749 275.807 359.575 274.118 364.742C272.718 369.038 271.109 373.582 269.293 378.374C267.453 383.23 264.307 387.342 262.397 392.107C260.396 397.103 255.842 401.155 255.168 406.604C254.726 410.172 251.057 414.133 249.066 417.099C246.338 421.167 243.768 425.266 241.355 429.394C238.39 434.471 230.588 444.042 231.925 450.174C233.748 458.538 238.832 463.652 247.176 465.515C252.343 466.671 259.009 462.198 261.653 458.558C265.231 453.619 268.864 448.375 272.55 442.825C275.385 438.543 277.707 433.777 280.532 429.314C280.649 429.129 280.811 428.977 281.003 428.871C281.194 428.766 281.41 428.711 281.628 428.711ZM530.545 454.688C530.625 452.798 531.208 451.019 531.218 449.169C531.346 430.912 531.269 409.633 530.987 385.331C530.967 383.568 530.944 381.766 530.917 379.922C530.562 350.178 530.458 320.146 530.605 289.826C530.635 283.271 531.218 278.345 525.046 274.254C522.07 272.273 519.567 271.368 515.897 271.429C512.288 271.489 508.85 271.358 505.703 273.449C501.783 276.053 499.068 278.576 499.058 283.774C499.025 341.137 499.021 397.653 499.048 453.321C499.055 455.66 499.638 458.079 500.797 460.579C500.985 460.995 501.297 461.279 501.732 461.434C504.346 462.359 506.769 463.706 509.624 463.806C510.898 463.853 512.151 464.004 513.384 464.259C519.758 465.586 530.243 462.147 530.545 454.688Z" fill="#37505C"/>
<path d="M281.628 428.711C281.41 428.711 281.194 428.766 281.003 428.871C280.811 428.977 280.649 429.129 280.532 429.314C277.707 433.777 275.385 438.543 272.55 442.825C268.864 448.375 265.231 453.619 261.653 458.558C259.009 462.198 252.343 466.671 247.176 465.515C238.832 463.652 233.748 458.538 231.925 450.174C230.588 444.042 238.39 434.471 241.355 429.394C243.768 425.266 246.338 421.167 249.066 417.099C251.057 414.133 254.726 410.173 255.168 406.604C255.842 401.155 260.396 397.103 262.397 392.107C264.307 387.342 267.453 383.23 269.293 378.374C271.109 373.582 272.718 369.038 274.118 364.742C275.807 359.575 278.049 354.749 279.567 349.522C280.804 345.279 282.644 341.178 283.87 336.875C286.457 327.84 288.669 318.608 290.505 309.178C291.048 306.384 290.978 303.78 291.42 301.156C292.144 296.853 292.898 292.54 293.682 288.217C294.6 283.117 295.931 279.367 297.673 276.968C300.91 272.531 305.856 270.433 312.512 270.675C316.727 270.829 320.139 272.799 322.746 276.586C327.37 283.301 326.958 290.54 328.265 298.2C330.349 310.478 333.06 322.385 336.398 333.919C337.189 336.647 337.849 339.365 338.378 342.072C339.002 345.202 339.809 347.91 340.801 350.195C341.719 352.293 342.473 354.294 343.063 356.197C344.631 361.214 347.255 365.878 348.653 370.975C349.306 373.328 350.794 375.027 351.628 377.299C352.795 380.455 354.805 383.18 355.6 386.457C356.679 390.907 358.696 395.301 361.651 399.637C364.366 403.628 365.612 408.001 368.618 411.771C369.831 413.292 370.773 414.867 371.443 416.496C372.539 419.15 373.283 422.307 374.952 424.659C376.688 427.092 378.564 429.475 380.582 431.807C383.145 434.773 384.02 437.939 385.769 441.267C389.227 447.872 388.353 459.503 380.471 462.851C373.581 465.78 366.933 465.1 360.526 460.81C358.153 459.212 356.514 457.392 355.519 454.708C354.614 452.235 353.348 449.722 351.719 447.621C347.805 442.554 343.911 437.011 340.037 430.993C339.283 429.837 338.027 428.721 336.559 428.721C319.629 428.761 301.319 428.757 281.628 428.711ZM318.453 386.829C317.863 383.25 316.821 379.755 315.326 376.344C313.859 372.996 312.733 369.568 311.164 366.26C311.102 366.131 311.003 366.023 310.88 365.95C310.756 365.876 310.614 365.84 310.471 365.847C310.328 365.853 310.189 365.901 310.073 365.986C309.957 366.07 309.868 366.186 309.817 366.321L298.92 396.048C298.871 396.182 298.856 396.325 298.874 396.466C298.893 396.607 298.946 396.742 299.028 396.858C299.11 396.975 299.218 397.07 299.345 397.135C299.471 397.201 299.612 397.234 299.754 397.234L319.237 397.214C319.342 397.213 319.445 397.188 319.539 397.141C319.632 397.094 319.714 397.026 319.777 396.943C319.84 396.859 319.883 396.762 319.903 396.659C319.922 396.556 319.918 396.45 319.891 396.349C319.227 393.863 318.959 391.175 319.086 388.287C319.093 388.012 319.003 387.774 318.815 387.573C318.621 387.359 318.5 387.111 318.453 386.829Z" fill="#EDDDC5"/>
<path d="M530.545 454.688C530.243 462.147 519.758 465.586 513.384 464.259C512.151 464.004 510.898 463.853 509.624 463.806C506.769 463.706 504.346 462.359 501.732 461.434C501.297 461.279 500.985 460.995 500.797 460.579C499.638 458.079 499.055 455.66 499.048 453.321C499.021 397.653 499.025 341.137 499.058 283.774C499.068 278.576 501.783 276.053 505.703 273.449C508.85 271.358 512.288 271.489 515.897 271.429C519.567 271.368 522.07 272.273 525.046 274.254C531.218 278.345 530.635 283.271 530.605 289.826C530.458 320.146 530.562 350.178 530.917 379.922C530.944 381.766 530.967 383.568 530.987 385.331C531.269 409.633 531.346 430.912 531.218 449.169C531.208 451.019 530.625 452.798 530.545 454.688Z" fill="#EDDDC5"/>
<path d="M318.815 387.573C319.003 387.774 319.093 388.012 319.086 388.287C318.959 391.175 319.227 393.863 319.891 396.349C319.918 396.45 319.922 396.556 319.903 396.659C319.883 396.762 319.84 396.859 319.777 396.943C319.714 397.026 319.632 397.094 319.539 397.141C319.445 397.188 319.342 397.213 319.237 397.214L299.754 397.234C299.612 397.234 299.471 397.201 299.345 397.135C299.218 397.07 299.11 396.975 299.028 396.858C298.946 396.742 298.893 396.607 298.874 396.466C298.856 396.325 298.871 396.182 298.92 396.048L309.817 366.321C309.868 366.186 309.957 366.07 310.073 365.986C310.189 365.901 310.328 365.853 310.471 365.847C310.614 365.84 310.756 365.876 310.88 365.95C311.003 366.023 311.102 366.131 311.164 366.26C312.733 369.568 313.859 372.996 315.326 376.344C316.821 379.755 317.863 383.25 318.453 386.829C318.5 387.11 318.621 387.358 318.815 387.573Z" fill="#37505C"/>
</g>
<defs>
<clipPath id="clip0_1_2">
<rect width="771" height="813" fill="white"/>
</clipPath>
</defs>
</svg>
